<svg width="30" height="31" viewBox="0 0 30 31" fill="none" xmlns="http://www.w3.org/2000/svg">
<g clip-path="url(#clip0)">
<path d="M5.71881 5.90945C4.4999 7.16886 3.533 8.66404 2.87332 10.3096C2.21364 11.9552 1.87411 13.7189 1.87411 15.5001C1.87411 17.2812 2.21364 19.045 2.87332 20.6905C3.533 22.3361 4.4999 23.8313 5.71881 25.0907C5.88958 25.2734 5.98408 25.5181 5.98194 25.7721C5.9798 26.0261 5.88121 26.2691 5.70739 26.4487C5.53357 26.6283 5.29843 26.7302 5.05262 26.7324C4.80681 26.7346 4.57 26.637 4.39318 26.4605C3.00022 25.0212 1.89526 23.3124 1.14139 21.4318C0.387524 19.5512 -0.000488281 17.5356 -0.000488281 15.5001C-0.000488281 13.4645 0.387524 11.4489 1.14139 9.56829C1.89526 7.68769 3.00022 5.97895 4.39318 4.53963C4.57 4.36317 4.80681 4.26552 5.05262 4.26773C5.29843 4.26994 5.53357 4.37182 5.70739 4.55143C5.88121 4.73105 5.9798 4.97402 5.98194 5.22803C5.98408 5.48203 5.88958 5.72674 5.71881 5.90945ZM9.69756 10.0208C8.29152 11.4742 7.50166 13.445 7.50166 15.5001C7.50166 17.5551 8.29152 19.526 9.69756 20.9793C9.78472 21.0694 9.85387 21.1763 9.90104 21.294C9.94821 21.4117 9.97249 21.5378 9.97249 21.6652C9.97249 21.7926 9.94821 21.9187 9.90104 22.0364C9.85387 22.1541 9.78472 22.261 9.69756 22.3511C9.61039 22.4411 9.50691 22.5126 9.39303 22.5613C9.27914 22.6101 9.15708 22.6352 9.03381 22.6352C8.91054 22.6352 8.78848 22.6101 8.67459 22.5613C8.5607 22.5126 8.45722 22.4411 8.37006 22.3511C7.49925 21.4515 6.80847 20.3834 6.33718 19.2079C5.86588 18.0324 5.62331 16.7725 5.62331 15.5001C5.62331 14.2277 5.86588 12.9677 6.33718 11.7922C6.80847 10.6167 7.49925 9.54867 8.37006 8.64907C8.5461 8.46717 8.78485 8.36497 9.03381 8.36497C9.28276 8.36497 9.52152 8.46717 9.69756 8.64907C9.8736 8.83098 9.97249 9.07769 9.97249 9.33494C9.97249 9.5922 9.8736 9.83891 9.69756 10.0208V10.0208ZM20.3026 8.64907C20.3896 8.55885 20.4931 8.48728 20.607 8.43844C20.7209 8.3896 20.843 8.36446 20.9663 8.36446C21.0896 8.36446 21.2117 8.3896 21.3256 8.43844C21.4395 8.48728 21.543 8.55885 21.6301 8.64907C22.5009 9.54867 23.1916 10.6167 23.6629 11.7922C24.1342 12.9677 24.3768 14.2277 24.3768 15.5001C24.3768 16.7725 24.1342 18.0324 23.6629 19.2079C23.1916 20.3834 22.5009 21.4515 21.6301 22.3511C21.5429 22.4411 21.4394 22.5126 21.3255 22.5613C21.2116 22.6101 21.0896 22.6352 20.9663 22.6352C20.843 22.6352 20.721 22.6101 20.6071 22.5613C20.4932 22.5126 20.3897 22.4411 20.3026 22.3511C20.2154 22.261 20.1463 22.1541 20.0991 22.0364C20.0519 21.9187 20.0276 21.7926 20.0276 21.6652C20.0276 21.5378 20.0519 21.4117 20.0991 21.294C20.1463 21.1763 20.2154 21.0694 20.3026 20.9793C21.7086 19.526 22.4985 17.5551 22.4985 15.5001C22.4985 13.445 21.7086 11.4742 20.3026 10.0208C20.2153 9.93083 20.146 9.82393 20.0987 9.70623C20.0515 9.58854 20.0271 9.46237 20.0271 9.33494C20.0271 9.20752 20.0515 9.08135 20.0987 8.96365C20.146 8.84596 20.2153 8.73906 20.3026 8.64907ZM24.2813 4.54157C24.4571 4.35996 24.6955 4.25793 24.9441 4.25793C25.1927 4.25793 25.4311 4.35996 25.6069 4.54157C28.4196 7.44833 29.9997 11.3905 29.9997 15.501C29.9997 19.6116 28.4196 23.5537 25.6069 26.4605C25.4301 26.637 25.1933 26.7346 24.9475 26.7324C24.7017 26.7302 24.4665 26.6283 24.2927 26.4487C24.1189 26.2691 24.0203 26.0261 24.0182 25.7721C24.016 25.5181 24.1105 25.2734 24.2813 25.0907C25.5002 23.8313 26.4671 22.3361 27.1268 20.6905C27.7865 19.045 28.126 17.2812 28.126 15.5001C28.126 13.7189 27.7865 11.9552 27.1268 10.3096C26.4671 8.66404 25.5002 7.16886 24.2813 5.90945C24.1056 5.72778 24.0068 5.48142 24.0068 5.22454C24.0068 4.96766 24.1056 4.7213 24.2813 4.53963V4.54157ZM18.7501 15.5001C18.7501 16.5278 18.355 17.5134 17.6517 18.2401C16.9484 18.9668 15.9946 19.3751 15.0001 19.3751C14.0055 19.3751 13.0517 18.9668 12.3484 18.2401C11.6451 17.5134 11.2501 16.5278 11.2501 15.5001C11.2501 14.4724 11.6451 13.4867 12.3484 12.76C13.0517 12.0333 14.0055 11.6251 15.0001 11.6251C15.9946 11.6251 16.9484 12.0333 17.6517 12.76C18.355 13.4867 18.7501 14.4724 18.7501 15.5001V15.5001Z" fill="black"/>
</g>
<defs>
<clipPath id="clip0">
<rect width="30" height="31" fill="white"/>
</clipPath>
</defs>
</svg>
