<svg width="50" height="51" viewBox="0 0 50 51" fill="none" xmlns="http://www.w3.org/2000/svg">
<path d="M27.0833 10.6447C18.7499 10.6447 18.7499 40.6447 27.0833 40.6447C35.4166 40.6447 45.8333 35.0197 45.8333 25.6447C45.8333 16.2697 35.4166 10.6447 27.0833 10.6447ZM27.2916 36.478C26.4583 35.6447 24.9999 31.8947 24.9999 25.6447C24.9999 19.3947 26.4583 15.6447 27.2916 14.8113C33.3333 15.0197 41.6666 18.7697 41.6666 25.6447C41.6666 32.5197 33.1249 36.2697 27.2916 36.478ZM16.6666 22.5197C16.6666 23.5613 16.4583 24.603 16.4583 25.6447V26.8947L4.99992 29.8113L3.95825 25.853L16.6666 22.5197ZM4.16659 15.228L19.5833 11.2697C19.1666 11.8947 18.7499 12.728 18.5416 13.7697C18.3333 14.3947 18.1249 15.228 17.9166 16.0613L5.20825 19.1863L4.16659 15.228ZM17.0833 32.9363C17.2916 34.3947 17.7083 35.853 18.1249 36.8947L4.99992 40.228L3.95825 36.2697L17.0833 32.9363V32.9363Z" fill="black"/>
</svg>
