<svg width="88" height="95" viewBox="0 0 88 95" fill="none" xmlns="http://www.w3.org/2000/svg">
<path d="M43.132 10.1393C43.112 10.14 43.0918 10.1402 43.0718 10.141C43.0456 10.1419 43.0195 10.144 42.9934 10.1451C42.9325 10.148 42.8713 10.1494 42.8106 10.1528C42.7561 10.1558 42.7017 10.1599 42.6472 10.1636C42.6253 10.165 42.6034 10.1663 42.5815 10.1679C42.4482 10.1775 42.3151 10.1889 42.1821 10.2018C42.1431 10.2056 42.1042 10.2097 42.0652 10.2137C41.9737 10.2232 41.8823 10.2334 41.7909 10.244C41.6942 10.2553 41.5976 10.2671 41.5011 10.2795C41.445 10.2867 41.3889 10.2938 41.3329 10.3012C41.2968 10.3061 41.2606 10.3103 41.2246 10.3153C41.2 10.3186 41.1755 10.3225 41.1509 10.3259C40.9402 10.3549 40.7296 10.3851 40.5193 10.4153C39.7781 10.5219 39.0385 10.6446 38.3015 10.771C38.2459 10.7805 38.1905 10.7908 38.135 10.8005C38.0307 10.8188 37.9264 10.8371 37.8222 10.856C37.7251 10.8737 37.6283 10.8923 37.5314 10.9107C37.4795 10.9206 37.4274 10.9299 37.3756 10.94C37.3541 10.9442 37.3328 10.9488 37.3114 10.953C37.2194 10.971 37.1276 10.9898 37.0358 11.0087C36.9494 11.0265 36.8631 11.0447 36.7768 11.0633C36.6936 11.0812 36.6105 11.0994 36.5276 11.1182C36.4454 11.1368 36.3635 11.1564 36.2816 11.1758C36.212 11.1923 36.142 11.2076 36.0727 11.2248C36.0477 11.231 36.0232 11.2383 35.9983 11.2446C35.9288 11.2622 35.8599 11.2814 35.7907 11.2999C35.701 11.3238 35.611 11.3471 35.5218 11.3725C35.5174 11.3738 35.5129 11.3748 35.5084 11.3761C35.3501 11.4213 35.1929 11.4697 35.0367 11.5202C35.016 11.5269 34.9956 11.5343 34.9749 11.5411C34.839 11.5856 34.7039 11.6319 34.5696 11.68C34.5037 11.7037 34.4385 11.7286 34.373 11.7532C34.2814 11.7874 34.19 11.8218 34.0993 11.8576C34.0718 11.8685 34.0438 11.8783 34.0164 11.8893C33.9744 11.9061 33.9331 11.9244 33.8912 11.9415C33.8468 11.9596 33.8019 11.9768 33.7577 11.9953C33.7132 12.0139 33.6693 12.0336 33.625 12.0525C33.5471 12.0858 33.4692 12.1191 33.3917 12.1532C33.3303 12.1801 33.2694 12.2078 33.2083 12.2352C32.858 12.3928 32.5125 12.5584 32.1721 12.7312C32.1337 12.7506 32.0949 12.7695 32.0566 12.789C32.0476 12.7936 32.0387 12.7983 32.0297 12.8029C32.0185 12.8087 32.0071 12.8142 31.9959 12.8199C31.8809 12.8794 31.7655 12.9394 31.6501 12.9997C31.6456 13.0021 31.641 13.0045 31.6364 13.0069C31.1089 13.2833 30.5839 13.5734 30.1138 13.9169C29.963 14.027 29.826 14.146 29.6987 14.2713C29.5324 14.4308 29.3809 14.6025 29.2488 14.7907C29.1238 14.9686 29.0134 15.1539 28.9116 15.343C28.9081 15.3495 28.9044 15.3559 28.9009 15.3624C28.8961 15.3715 28.8916 15.3807 28.8868 15.3898C28.8242 15.5084 28.7641 15.628 28.7081 15.7492C28.5104 16.1695 28.3459 16.6029 28.2068 17.0404C28.1975 17.0695 28.1886 17.0987 28.1796 17.1278C28.1681 17.1649 28.1562 17.2018 28.145 17.2389C28.0875 17.4301 28.0382 17.6228 27.9948 17.8163C27.9896 17.839 27.9832 17.8615 27.9782 17.8842C27.9747 17.9006 27.9723 17.917 27.9688 17.9333C27.9476 18.0336 27.9285 18.1341 27.911 18.2348C27.9032 18.2792 27.8961 18.3236 27.889 18.3681C27.8717 18.4775 27.8553 18.5869 27.8419 18.6967C27.8406 18.7072 27.8396 18.7177 27.8383 18.7282C27.8204 18.8766 27.8053 19.0253 27.7939 19.1744C27.7505 19.7389 27.7467 20.3065 27.7533 20.872C27.758 21.2795 27.765 21.687 27.7708 22.0945C27.7778 22.577 27.7847 23.0594 27.7916 23.5418C27.7925 23.6062 27.7933 23.6706 27.7941 23.7349C27.8049 24.5531 27.8156 25.3713 27.8264 26.1894C27.8374 27.0362 27.8486 27.8831 27.8597 28.7298C27.8695 29.476 27.8793 30.2221 27.8891 30.9683C27.8958 31.4857 27.9026 32.003 27.9094 32.5205C27.9103 32.5879 27.9114 32.6553 27.9125 32.7227C27.9113 32.8903 27.9098 33.0579 27.909 33.2254C27.907 33.6875 27.9051 34.1496 27.9031 34.6117C27.9028 34.6841 27.9025 34.7565 27.9021 34.8289C27.9021 34.8315 27.9025 34.835 27.9027 34.8379C27.9024 34.873 27.9022 34.9081 27.9019 34.9432C27.9018 34.9436 27.9018 34.9442 27.9016 34.9446C27.8873 34.9784 27.8215 34.9959 27.7826 35.0155C27.6978 35.0582 27.614 35.1025 27.531 35.1479C27.494 35.1682 27.4581 35.19 27.4215 35.2109C27.3656 35.242 27.3101 35.2739 27.2551 35.3067C27.2331 35.3199 27.2113 35.3334 27.1895 35.3469C27.1555 35.3677 27.1214 35.3883 27.0877 35.4099C27.0791 35.4154 27.0705 35.4213 27.0618 35.4269C26.7789 35.6097 26.4945 35.8194 26.2811 36.0694C26.2695 36.083 26.2578 36.0967 26.2466 36.1106C26.2336 36.1265 26.2208 36.1425 26.2085 36.1588C26.1823 36.1932 26.1577 36.2284 26.1346 36.2645C26.1333 36.2665 26.1318 36.2683 26.1305 36.2703C26.1264 36.2769 26.1232 36.2842 26.1193 36.2909C26.104 36.3159 26.0886 36.3408 26.0752 36.3666C26.0704 36.376 26.0666 36.3859 26.062 36.3954C26.0575 36.4048 26.0533 36.4143 26.049 36.4238C26.0349 36.4546 26.0224 36.4862 26.0104 36.5182C26.0035 36.5373 25.996 36.5563 25.9899 36.5757C25.9883 36.5804 25.9872 36.5853 25.9857 36.59C25.9085 36.8324 25.8885 37.0982 25.9262 37.3413C25.9352 37.447 25.9591 37.5878 26.0438 37.6463C26.0528 37.6529 26.0625 37.6588 26.0735 37.6633C26.0738 37.6634 26.0742 37.6637 26.0746 37.6638C26.0851 37.6678 26.0962 37.671 26.1082 37.6727C26.1088 37.6728 26.1093 37.6728 26.1098 37.6728C26.1101 37.6729 26.1102 37.673 26.1104 37.673C26.1119 37.6732 26.1134 37.673 26.1148 37.6732C26.1252 37.6743 26.136 37.6744 26.1468 37.6744C26.2686 37.6744 26.4082 37.6039 26.5111 37.5664C26.9651 37.4012 27.4192 37.2371 27.8749 37.0759C27.87 37.5796 27.8651 38.0832 27.8603 38.5869C27.8516 39.4797 27.843 40.3724 27.8344 41.2651C27.8306 41.6498 27.8222 42.0348 27.8238 42.4196C27.8241 42.4779 27.8243 42.5361 27.8246 42.5943C27.825 42.8138 27.8264 43.0333 27.8271 43.2527C27.8292 43.8784 27.8312 44.504 27.8333 45.1296C27.8353 45.7474 27.8374 46.3652 27.8395 46.983C27.8403 47.2446 27.8392 47.5063 27.842 47.7679C27.8431 47.8616 27.8454 47.9552 27.8472 48.0489C27.8478 48.1287 27.8478 48.2085 27.8487 48.2883C27.853 48.6622 27.8626 49.0361 27.8696 49.4099C27.8854 50.2577 27.9012 51.1054 27.917 51.9532C27.9332 52.8238 27.9494 53.6944 27.9657 54.5651C27.9738 55.0017 27.9835 55.4384 27.99 55.8751C27.9946 56.4214 27.9993 56.9677 28.0039 57.5141C28.0071 57.9072 28.0063 58.3 28.0032 58.6932C28.0004 59.0477 27.9943 59.4021 27.9873 59.7564C27.978 60.149 27.9679 60.5415 27.9508 60.934C27.9135 61.7888 27.8764 62.6436 27.8392 63.4984C27.8186 63.9712 27.7981 64.4439 27.7809 64.9169C27.7684 65.2613 27.7562 65.6056 27.7452 65.95C27.7451 65.9514 27.7451 65.9527 27.745 65.9541C27.7328 66.2495 27.7272 66.5448 27.7208 66.8404C27.7207 66.8448 27.7207 66.8491 27.7206 66.8534C27.7198 66.8898 27.7184 66.9262 27.7177 66.9626C27.705 67.556 27.6988 68.1498 27.7032 68.7432C27.7048 68.9664 27.7083 69.1895 27.7129 69.4125C27.7138 69.4661 27.7144 69.5197 27.7154 69.5733C27.716 69.6072 27.7178 69.6411 27.7186 69.675C27.7198 69.7291 27.7221 69.7832 27.7237 69.8373C27.7291 70.0128 27.7358 70.1884 27.7438 70.364C27.7481 70.4604 27.7521 70.5568 27.7573 70.6532C27.761 70.7208 27.7669 70.7884 27.7714 70.856C27.7718 70.8623 27.772 70.8686 27.7725 70.8749C27.7731 70.8844 27.7741 70.894 27.7747 70.9035C27.7827 71.0174 27.7911 71.1313 27.8015 71.245C27.8129 71.3745 27.8257 71.504 27.84 71.6333C27.8521 71.7403 27.8649 71.8473 27.8792 71.9541C27.8833 71.9851 27.8877 72.0162 27.892 72.0472C27.8979 72.0891 27.9031 72.1311 27.9094 72.173C27.9146 72.2073 27.921 72.2414 27.9265 72.2756C27.935 72.3306 27.9424 72.3858 27.9515 72.4407C27.9535 72.4529 27.9559 72.465 27.958 72.4772H27.9578C27.9579 72.4776 27.9581 72.478 27.9582 72.4784C28.0119 72.7933 28.0839 73.1052 28.1579 73.4167C28.1627 73.4374 28.1672 73.4581 28.1721 73.4787C28.2357 73.7497 28.2982 74.0206 28.355 74.2924C28.3679 74.3595 28.3804 74.4266 28.3918 74.4938C28.4168 74.6854 28.4519 74.8758 28.4965 75.0646C28.5086 75.1366 28.5207 75.2085 28.5325 75.2805C28.5991 75.7207 28.6552 76.1629 28.7276 76.6023C28.7398 76.6852 28.7539 76.7679 28.7693 76.8503C28.77 76.8543 28.7706 76.8583 28.7713 76.8624C28.7722 76.8672 28.7735 76.872 28.7745 76.8769C28.8046 77.0331 28.8419 77.188 28.8953 77.3394C28.9641 77.5344 29.0557 77.7236 29.1615 77.9067C29.1679 77.9179 29.1744 77.929 29.1809 77.9402C29.2069 77.9841 29.2329 78.0279 29.2607 78.0709C29.2985 78.1302 29.3377 78.189 29.3789 78.2468C29.3826 78.252 29.3859 78.2573 29.3896 78.2624C29.391 78.2645 29.3926 78.2663 29.3941 78.2684C29.4279 78.3149 29.4625 78.361 29.4981 78.4062C29.5026 78.4119 29.5074 78.4174 29.512 78.423C29.515 78.4269 29.5183 78.4306 29.5214 78.4345C29.7696 78.7428 30.0695 79.0128 30.422 79.2312C30.4336 79.2384 30.4457 79.2449 30.4574 79.252C30.46 79.2536 30.4627 79.2551 30.4654 79.2567C30.518 79.2888 30.572 79.3195 30.6267 79.3494C30.634 79.3534 30.6408 79.3578 30.6481 79.3617C30.658 79.367 30.6683 79.3717 30.6782 79.377C30.7304 79.4046 30.7831 79.4314 30.8364 79.4574C30.8502 79.464 30.8638 79.4709 30.8776 79.4774C30.9444 79.5092 31.0119 79.54 31.0802 79.5693C31.0812 79.5697 31.082 79.5701 31.0829 79.5705C31.1469 79.598 31.2118 79.6239 31.2769 79.6494C31.3122 79.6631 31.3477 79.6763 31.3832 79.6895C31.4116 79.7001 31.44 79.7105 31.4685 79.7208C31.5117 79.7362 31.5551 79.7515 31.5986 79.7662C31.6152 79.7718 31.6318 79.7772 31.6485 79.7827C31.696 79.7985 31.7436 79.8142 31.7913 79.8292C31.8076 79.8343 31.8242 79.8386 31.8405 79.8436C31.9336 79.8723 32.027 79.9 32.121 79.9261C32.1384 79.9309 32.1558 79.9359 32.1733 79.9406C32.2744 79.9682 32.3756 79.9949 32.4771 80.0201C32.4799 80.0208 32.4827 80.0215 32.4855 80.0221C32.6133 80.0539 32.7416 80.0841 32.8701 80.1139C33.3741 80.231 33.8826 80.3346 34.3928 80.428C34.4607 80.4404 34.529 80.4513 34.597 80.4633C34.6545 80.4736 34.7118 80.4842 34.7693 80.4943C34.8764 80.5131 34.9837 80.5311 35.0911 80.5488C35.1246 80.5543 35.158 80.5598 35.1915 80.5652C35.4588 80.6086 35.7267 80.6491 35.9952 80.6862C35.9953 80.6863 35.9953 80.6864 35.9953 80.6865L35.9953 80.6862C36.0492 80.6936 36.1033 80.7006 36.1573 80.7078C36.197 80.7132 36.2366 80.7188 36.2763 80.7241C36.2865 80.7255 36.2967 80.7265 36.3069 80.7278C36.3308 80.7309 36.3546 80.7344 36.3785 80.7374C36.5024 80.7529 36.6264 80.767 36.7504 80.7812C37.0875 80.8206 37.4251 80.8567 37.7634 80.8863C37.9748 80.9049 38.1866 80.921 38.3984 80.9364C38.4101 80.9373 38.4218 80.9384 38.4335 80.9393C38.5128 80.9453 38.5921 80.9504 38.6714 80.9559C38.8515 80.9682 39.0317 80.9799 39.2119 80.9904C39.2363 80.9918 39.2606 80.9937 39.285 80.9951C39.2964 80.9957 39.3078 80.9961 39.3191 80.9967C39.5683 81.0107 39.8177 81.0224 40.0671 81.0331C40.1239 81.0355 40.1808 81.038 40.2376 81.0403C40.2722 81.0417 40.3068 81.0434 40.3413 81.0447C40.3702 81.0458 40.399 81.0467 40.4279 81.0479C40.6028 81.0548 40.7777 81.0618 40.9527 81.0687C41.4025 81.0863 41.8527 81.0985 42.3028 81.1082C42.3203 81.1086 42.3379 81.1089 42.3554 81.1093C42.3564 81.1093 42.3573 81.1093 42.3583 81.1093C42.3678 81.1096 42.3774 81.1097 42.387 81.1099C42.9209 81.1216 43.4549 81.134 43.989 81.1353C44.506 81.1366 45.0234 81.1228 45.5401 81.1116C45.545 81.1115 45.5499 81.1114 45.5547 81.1113C45.5571 81.1112 45.5595 81.1112 45.5619 81.1111C46.017 81.1012 46.4727 81.0912 46.9276 81.0734C47.0316 81.0693 47.1356 81.0649 47.2395 81.0608C47.6932 81.0438 48.1468 81.0244 48.6001 81.0009C48.6025 81.0008 48.6049 81.0007 48.6073 81.0005C48.6188 81 48.6302 80.9995 48.6416 80.9989C48.6746 80.9972 48.7075 80.9947 48.7404 80.9929C48.9149 80.9835 49.0893 80.9729 49.2637 80.9612C49.3236 80.9573 49.3835 80.9533 49.4433 80.949C49.6545 80.9341 49.8657 80.9181 50.0764 80.9003C50.0793 80.9001 50.0822 80.8999 50.085 80.8997C50.0954 80.8988 50.1057 80.8976 50.1161 80.8967C50.2614 80.8842 50.4067 80.8712 50.5518 80.8572C50.6178 80.8508 50.6837 80.8435 50.7496 80.8368C50.8107 80.8306 50.8718 80.8244 50.9328 80.8179C51.1626 80.7932 51.3921 80.7668 51.6212 80.7375C51.6267 80.7368 51.6321 80.7363 51.6376 80.7356C51.7076 80.7266 51.7776 80.7171 51.8476 80.7077C51.9 80.7007 51.9524 80.6936 52.0047 80.6864V80.6865C52.0047 80.6865 52.0048 80.6864 52.0048 80.6864C52.0231 80.6839 52.0415 80.6815 52.0598 80.679C52.4073 80.6306 52.7542 80.5777 53.0991 80.5175C53.6065 80.429 54.1136 80.3373 54.6157 80.2278C54.6294 80.2248 54.6432 80.2217 54.6569 80.2187C55.1303 80.1182 55.6037 80.0104 56.0648 79.8725C56.0772 79.8688 56.0898 79.8657 56.1022 79.8619C56.1167 79.8576 56.1312 79.8528 56.1457 79.8484C56.1653 79.8424 56.1847 79.8362 56.2043 79.8301C56.2696 79.8096 56.3347 79.7885 56.3995 79.7666C56.4026 79.7655 56.4057 79.7646 56.4088 79.7635C56.4101 79.7631 56.4114 79.7626 56.4126 79.7622C56.6295 79.6884 56.8427 79.6056 57.0488 79.5114C57.0529 79.5095 57.057 79.5076 57.0611 79.5057C57.1253 79.4762 57.1887 79.4454 57.2512 79.4136C57.2562 79.411 57.2613 79.4085 57.2663 79.406C57.3387 79.3688 57.4104 79.3305 57.4803 79.2899C57.5364 79.2573 57.5908 79.2231 57.6445 79.1881C57.6563 79.1804 57.6678 79.1725 57.6795 79.1647C57.7171 79.1398 57.7539 79.1139 57.7904 79.0878C57.8188 79.0673 57.8472 79.0469 57.8749 79.0257C57.8822 79.0201 57.8892 79.0142 57.8965 79.0086C57.9362 78.978 57.9762 78.9477 58.0143 78.9154C58.0898 78.8514 58.161 78.7835 58.2302 78.7138C58.2314 78.7126 58.2326 78.7114 58.2338 78.7101C58.2779 78.6657 58.3202 78.6199 58.3616 78.5733C58.3783 78.5547 58.3945 78.5357 58.4108 78.5167C58.4204 78.5053 58.4306 78.4943 58.4401 78.4828C58.4461 78.4756 58.4514 78.4679 58.4574 78.4606C58.5078 78.3994 58.5563 78.3371 58.6025 78.2733C58.6049 78.27 58.6074 78.2668 58.6098 78.2635C58.6621 78.1908 58.7127 78.1172 58.7596 78.0417C58.7742 78.0182 58.7897 77.9949 58.8038 77.9711C58.8071 77.9657 58.81 77.96 58.8133 77.9545C58.9143 77.7844 59.0017 77.6083 59.0721 77.4278C59.1665 77.1858 59.218 76.936 59.2577 76.6842C59.2868 76.5101 59.3102 76.3349 59.3336 76.1599C59.386 75.7939 59.4425 75.4285 59.5038 75.0635C59.504 75.0625 59.5042 75.0616 59.5044 75.0606C59.5253 74.9611 59.5484 74.8619 59.567 74.7618C59.5684 74.7544 59.5703 74.747 59.5716 74.7395C59.5755 74.7178 59.5782 74.696 59.5817 74.6742C59.5881 74.6337 59.5945 74.5932 59.6004 74.5527C59.6091 74.4927 59.6196 74.4329 59.6299 74.3731C59.68 74.1256 59.7342 73.8789 59.7921 73.6325C59.827 73.4839 59.8614 73.3354 59.8952 73.1869C59.9226 73.0662 59.9487 72.9454 59.9737 72.8243C59.988 72.7553 60.0027 72.6863 60.0156 72.617C60.0188 72.6001 60.0228 72.5834 60.0259 72.5664C60.0307 72.5396 60.0344 72.5127 60.039 72.4859C60.0401 72.4829 60.0413 72.48 60.0424 72.4771H60.0405C60.0424 72.4657 60.0441 72.4544 60.046 72.443C60.0542 72.3958 60.0634 72.3488 60.0708 72.3014C60.0753 72.2724 60.0791 72.2433 60.0834 72.2142C60.092 72.1573 60.1003 72.1004 60.1082 72.0434C60.1172 71.9796 60.1254 71.9157 60.1334 71.8518C60.1413 71.7891 60.1496 71.7264 60.1567 71.6636C60.1705 71.5421 60.1833 71.4204 60.1943 71.2986C60.1961 71.2788 60.1975 71.259 60.1993 71.2391C60.2065 71.1574 60.2137 71.0757 60.2197 70.994C60.2216 70.9686 60.2225 70.9432 60.2242 70.9178C60.2257 70.8972 60.2277 70.8766 60.229 70.8561C60.2393 70.7008 60.248 70.5455 60.2556 70.3901C60.2596 70.3081 60.2626 70.2262 60.2659 70.1442C60.2706 70.0273 60.2749 69.9105 60.2783 69.7936C60.2798 69.7441 60.2823 69.6946 60.2835 69.6451C60.2844 69.6124 60.2846 69.5796 60.2854 69.5468C60.2863 69.5083 60.2868 69.4697 60.2876 69.4311C60.2899 69.3179 60.2922 69.2046 60.2936 69.0913C60.2938 69.0777 60.2937 69.0641 60.2938 69.0505C60.2969 68.832 60.2987 68.6135 60.2973 68.3951C60.2972 68.3908 60.2972 68.3864 60.2972 68.3821C60.2957 68.1545 60.2944 67.9269 60.2924 67.6993C60.2913 67.5831 60.2917 67.4667 60.2899 67.3505C60.2883 67.2494 60.2854 67.1484 60.2834 67.0474C60.2831 67.0297 60.2831 67.012 60.2827 66.9943C60.2758 66.6688 60.2713 66.3433 60.2578 66.0179C60.2561 65.9756 60.2543 65.9334 60.2526 65.8911C60.2496 65.802 60.2473 65.7129 60.2441 65.6239C60.2259 65.1229 60.209 64.6219 60.1872 64.121C60.1527 63.3277 60.1182 62.5343 60.0836 61.741C60.0763 61.5728 60.0682 61.4047 60.0602 61.2365C60.0564 61.1428 60.0525 61.0491 60.0486 60.9553C60.039 60.7211 60.0284 60.487 60.0231 60.2525C60.0227 60.2361 60.0224 60.2198 60.022 60.2033C60.0096 59.6373 60.0012 59.0716 59.996 58.5056C59.9941 58.2187 59.9928 57.932 59.9952 57.6451C59.9991 57.1865 60.003 56.7279 60.0068 56.2693C60.0091 56.0281 60.0113 55.787 60.0156 55.5458C60.016 55.5226 60.0163 55.4994 60.0167 55.4762C60.0281 54.8582 60.0394 54.2401 60.0506 53.6221C60.0566 53.2956 60.0626 52.9692 60.0686 52.6428C60.0718 52.4684 60.075 52.294 60.0782 52.1196C60.0904 51.456 60.1025 50.7924 60.1147 50.1288C60.124 49.6226 60.1333 49.1162 60.1426 48.61C60.1446 48.5047 60.1468 48.3995 60.149 48.2942C60.1496 48.2923 60.1503 48.2907 60.151 48.2888L60.1491 48.2896C60.1519 48.1523 60.1541 48.015 60.156 47.8777C60.1565 47.844 60.1574 47.8104 60.1578 47.7767C60.1597 47.6305 60.1599 47.4844 60.16 47.3382C60.1612 47.0364 60.1618 46.7346 60.1625 46.4328C60.1638 46.0513 60.1651 45.6698 60.1664 45.2883C60.1682 44.7342 60.17 44.1801 60.1719 43.626C60.1721 43.5428 60.1724 43.4597 60.1727 43.3765C60.1737 43.0676 60.176 42.7585 60.1757 42.4495C60.1757 42.4278 60.176 42.4061 60.176 42.3844C60.1757 42.2395 60.1742 42.0945 60.1725 41.9496C60.1696 41.644 60.1662 41.3384 60.163 41.0328C60.1591 40.6275 60.1552 40.2223 60.1513 39.817C60.1452 39.1905 60.1392 38.5641 60.1332 37.9376C60.1304 37.6503 60.1276 37.3631 60.1248 37.0758C60.5414 37.2231 60.9567 37.3729 61.3717 37.5239C61.4152 37.5401 61.4589 37.5559 61.5027 37.5717C61.6052 37.6106 61.7394 37.6756 61.857 37.6743C61.8621 37.6742 61.8671 37.674 61.8721 37.6737C61.8779 37.6733 61.8839 37.6737 61.8896 37.673C61.895 37.6723 61.8994 37.6704 61.9044 37.6692C61.9081 37.6684 61.9122 37.6687 61.9159 37.6676C61.9188 37.6667 61.9212 37.6652 61.9239 37.6642C61.9254 37.6636 61.9268 37.6629 61.9283 37.6623C61.9392 37.6577 61.9488 37.6517 61.9577 37.6449C62.0483 37.5819 62.0718 37.4282 62.0785 37.3079C62.113 37.0472 62.0826 36.7635 61.9871 36.512C61.9805 36.4945 61.9732 36.4773 61.9659 36.4601C61.9573 36.4394 61.9493 36.4186 61.9397 36.3984C61.922 36.3614 61.9027 36.325 61.8812 36.2894C61.8789 36.2857 61.8763 36.2821 61.874 36.2784C61.8724 36.2758 61.8712 36.2729 61.8696 36.2703C61.8654 36.2638 61.8604 36.2577 61.8562 36.2512C61.8326 36.2149 61.8082 36.1791 61.7815 36.1444C61.7807 36.1433 61.7799 36.1422 61.7791 36.1411C61.7474 36.1 61.7133 36.0603 61.6779 36.0213C61.3375 35.6382 60.8355 35.3428 60.3787 35.0991C60.3009 35.0576 60.2223 35.0173 60.1428 34.9786C60.0945 34.9551 60.1003 34.9597 60.098 34.9193C60.0973 34.8137 60.0965 34.7081 60.0958 34.6025C60.0961 34.578 60.0964 34.5535 60.0963 34.5291C60.0943 34.0565 60.0923 33.5839 60.0903 33.1113C60.0897 32.9827 60.0888 32.8542 60.0879 32.7256C60.0887 32.6698 60.0894 32.6139 60.0902 32.558C60.0968 32.0533 60.1034 31.5487 60.11 31.0441C60.1197 30.3045 60.1294 29.5649 60.1391 28.8253C60.1502 27.98 60.1613 27.1347 60.1724 26.2894C60.1832 25.4652 60.194 24.641 60.2048 23.8168C60.2072 23.6394 60.2095 23.4618 60.2118 23.2843C60.2179 22.8624 60.2239 22.4404 60.23 22.0184C60.2356 21.6327 60.2428 21.247 60.2466 20.8614C60.2483 20.692 60.2484 20.5226 60.2473 20.3532C60.2474 20.3533 60.2475 20.3534 60.2477 20.3536L60.2473 20.3531C60.2472 20.3232 60.2464 20.2934 60.2461 20.2635C60.2454 20.1862 60.2446 20.1089 60.2431 20.0316C60.2417 19.9645 60.2394 19.8974 60.2373 19.8303C60.2352 19.7609 60.2344 19.6914 60.2314 19.6219C60.2297 19.5827 60.2263 19.5436 60.2243 19.5044C60.2183 19.3828 60.2111 19.2612 60.202 19.1398C60.2003 19.1169 60.1995 19.0939 60.1977 19.071C60.1814 18.8674 60.1572 18.6645 60.1267 18.4624C60.1207 18.4227 60.1153 18.3831 60.1088 18.3435C60.1081 18.3394 60.1074 18.3354 60.1067 18.3313C60.0919 18.2418 60.0751 18.1527 60.0575 18.0637C60.0508 18.0292 60.0456 17.9945 60.0384 17.96C60.033 17.9343 60.0259 17.9088 60.0203 17.883C59.9989 17.7859 59.9764 17.689 59.9517 17.5925C59.942 17.5542 59.9315 17.5161 59.9213 17.478C59.891 17.3645 59.8592 17.2512 59.8244 17.1386C59.6817 16.676 59.5109 16.2158 59.3027 15.7706C59.2995 15.7637 59.2966 15.7567 59.2933 15.7499C59.2918 15.7466 59.2902 15.7433 59.2886 15.74C59.1456 15.432 58.9831 15.1307 58.7893 14.8455C58.6295 14.6105 58.4421 14.3992 58.2317 14.2061C58.2 14.177 58.168 14.1481 58.1352 14.1199C58.1244 14.1104 58.1134 14.1011 58.1025 14.0917C58.013 14.0151 57.9204 13.9406 57.821 13.8703C57.24 13.4596 56.5876 13.1173 55.9434 12.7888C55.9124 12.7731 55.881 12.758 55.85 12.7423C55.7259 12.6795 55.6015 12.6171 55.4763 12.5559C55.4437 12.5401 55.411 12.5246 55.3784 12.5088C55.2684 12.4557 55.1577 12.4035 55.0468 12.3518C54.9708 12.3166 54.8948 12.2817 54.8184 12.2473C54.7497 12.2161 54.6806 12.1856 54.6115 12.1552C54.5261 12.1176 54.4406 12.0801 54.3547 12.0435C54.3359 12.0355 54.3173 12.027 54.2985 12.0191C54.2156 11.9839 54.1315 11.9507 54.0479 11.9168C54.0042 11.8991 53.9611 11.8802 53.9173 11.8629C53.9108 11.8603 53.9042 11.8581 53.8978 11.8556C53.7724 11.8062 53.646 11.7586 53.5191 11.7122C53.518 11.7118 53.517 11.7114 53.516 11.7111C53.2002 11.5956 52.8801 11.4892 52.5554 11.3943C52.4889 11.3749 52.4216 11.3577 52.3548 11.3393C52.3435 11.3361 52.3322 11.3331 52.321 11.33C52.1862 11.2926 52.0504 11.2579 51.9144 11.2236C51.8772 11.2143 51.8405 11.2037 51.8032 11.1945C51.7502 11.1815 51.6966 11.1701 51.6435 11.1575C51.6213 11.1522 51.599 11.1472 51.5767 11.142C51.0456 11.018 50.5081 10.9124 49.9689 10.8183C49.8707 10.8012 49.7726 10.7836 49.6744 10.7671C49.6424 10.7618 49.6103 10.7566 49.5783 10.7512C49.3097 10.7055 49.041 10.6608 48.7722 10.617C48.732 10.6104 48.6917 10.6044 48.6515 10.5978C48.5327 10.5785 48.4138 10.5596 48.2949 10.5407C48.2948 10.5407 48.2948 10.5406 48.2948 10.5405L48.2948 10.5407C48.1573 10.5189 48.0197 10.4971 47.882 10.476C47.8173 10.4661 47.7526 10.4567 47.6879 10.447C47.5749 10.4301 47.462 10.4127 47.3489 10.3965C47.2345 10.38 47.12 10.3638 47.0055 10.3479C46.9628 10.3419 46.9202 10.3351 46.8775 10.3293C46.8284 10.3225 46.7791 10.317 46.73 10.3105C46.5756 10.2899 46.4211 10.2699 46.2663 10.2516C46.2178 10.2459 46.1692 10.2404 46.1206 10.235C46.0159 10.2232 45.9112 10.2123 45.8063 10.2022C45.7273 10.1946 45.6483 10.1873 45.5691 10.1808C45.5133 10.1761 45.4574 10.1717 45.4014 10.1676C45.2901 10.1595 45.1787 10.1523 45.0671 10.1468C45.0543 10.1462 45.0414 10.146 45.0286 10.1454C45.0162 10.1449 45.0039 10.1437 44.9915 10.1432C44.9378 10.141 44.8839 10.1401 44.8302 10.1382C44.2658 10.1167 43.6968 10.1168 43.132 10.1393ZM49.7513 27.8824C49.7649 27.8856 49.7785 27.8889 49.7921 27.8921C49.9097 27.9193 50.027 27.9478 50.1439 27.9772C50.1542 27.9798 50.1645 27.9824 50.1748 27.985C50.4257 28.0487 50.6752 28.1168 50.9236 28.1876C51.3214 28.3019 51.7152 28.4254 52.1074 28.5533C52.1773 28.5764 52.2469 28.5999 52.3166 28.6234C52.4086 28.6541 52.5005 28.6852 52.5921 28.7169C52.6763 28.7461 52.7603 28.7754 52.8442 28.8054C53.0728 28.8864 53.3002 28.9703 53.5261 29.057C53.5532 29.0674 53.5803 29.0776 53.6073 29.0881C53.6734 29.1137 53.7393 29.1396 53.8051 29.1658C53.865 29.1895 53.9247 29.2135 53.9843 29.2377C54.0307 29.2565 54.0771 29.2753 54.1233 29.2944C54.2055 29.3284 54.2872 29.3631 54.3688 29.3982C54.401 29.4121 54.4334 29.4255 54.4655 29.4395C54.5686 29.4845 54.6711 29.5305 54.7731 29.5773C54.8231 29.6002 54.8727 29.6238 54.9224 29.6471C54.9837 29.6759 55.0448 29.7048 55.1056 29.7342C55.1407 29.7512 55.1757 29.7685 55.2107 29.7858C55.2208 29.7907 55.2309 29.7956 55.241 29.8006C55.3225 29.841 55.4034 29.8821 55.4841 29.9238C55.5075 29.9359 55.5312 29.9478 55.5546 29.9601C55.5859 29.9765 55.617 29.9936 55.6484 30.0102C55.9901 30.1922 56.3252 30.3843 56.6515 30.5868C56.7987 30.6781 56.9359 30.7852 57.086 30.8719C57.1192 30.8911 57.1764 30.9008 57.1921 30.9235L56.9401 32.0591L56.297 34.9573L56.1458 35.6388L55.8272 37.0745L54.9268 41.1323C54.9268 41.1325 54.9267 41.1328 54.9267 41.133C54.2357 40.9387 53.5446 40.7488 52.8383 40.6006C52.1247 40.451 51.4022 40.3388 50.6783 40.2347C49.9813 40.1344 49.2797 40.0539 48.5779 39.9838C47.8505 39.911 47.1219 39.8533 46.3911 39.8137C45.6899 39.7756 44.9869 39.7595 44.2844 39.7566C43.5711 39.7536 42.8567 39.7587 42.1441 39.7892C41.3965 39.8212 40.6516 39.871 39.907 39.9371C39.2165 39.9984 38.5264 40.074 37.8403 40.1653C37.1107 40.2623 36.3816 40.3653 35.6601 40.5019C34.9777 40.6311 34.3021 40.7873 33.6375 40.9743C33.4495 41.0272 33.2614 41.0801 33.0734 41.1329C33.0733 41.1325 33.0732 41.132 33.0731 41.1316L32.1729 37.0748L31.8544 35.6393L31.7031 34.9574L31.2192 32.7765L31.06 32.0592L30.8053 30.9114C30.8054 30.9114 30.8054 30.9113 30.8054 30.9113C30.8105 30.9058 30.8549 30.9002 30.8633 30.8971C30.8855 30.8889 30.9055 30.8772 30.9252 30.8652C31.0874 30.7663 31.2401 30.6542 31.4017 30.5539C31.435 30.5333 31.4688 30.5134 31.5024 30.4931C31.563 30.4567 31.6237 30.4205 31.6846 30.3847C31.7244 30.3615 31.764 30.3382 31.8038 30.3151C31.8781 30.2721 31.9526 30.2295 32.0277 30.1876C32.1414 30.1241 32.2556 30.0614 32.3708 30.0004C32.5007 29.9315 32.6314 29.8639 32.7635 29.7983C32.772 29.7941 32.7805 29.7901 32.7889 29.7859C32.8127 29.7742 32.8367 29.7626 32.8606 29.751C32.9374 29.7136 33.0145 29.6766 33.0921 29.6402C33.1262 29.6242 33.1604 29.6083 33.1946 29.5925C33.3849 29.5052 33.5773 29.4216 33.7709 29.3403C33.8435 29.3099 33.916 29.2794 33.989 29.2497C34.0888 29.209 34.1888 29.1686 34.2893 29.1292C34.3884 29.0903 34.488 29.0524 34.5876 29.0145C34.6259 28.9999 34.6639 28.9849 34.7022 28.9705C34.7353 28.9581 34.7686 28.9462 34.8018 28.9339C35.1031 28.8227 35.407 28.7164 35.7123 28.6139C35.7847 28.5896 35.8568 28.5647 35.9295 28.5409C35.951 28.5341 35.9726 28.5273 35.9942 28.5203C36.1658 28.4645 36.3377 28.4092 36.5103 28.3556C36.5174 28.3534 36.5245 28.3512 36.5316 28.349C36.7185 28.2912 36.906 28.2348 37.0941 28.1802C37.334 28.1105 37.5749 28.0434 37.8177 27.9815C38.3462 27.8467 38.8808 27.7365 39.4229 27.653C39.5117 27.6393 39.6009 27.627 39.6901 27.6145C40.0798 27.5613 40.4711 27.5183 40.863 27.4788C40.8718 27.4779 40.8806 27.4771 40.8895 27.4762C40.9597 27.4692 41.0301 27.4637 41.1004 27.4572C41.6561 27.4084 42.212 27.3668 42.7694 27.3366C42.9726 27.3258 43.176 27.3166 43.3795 27.31C43.7967 27.2964 44.2121 27.2943 44.6291 27.3051C44.6745 27.3065 44.7198 27.3075 44.7652 27.3092C44.8073 27.3107 44.8495 27.3122 44.8916 27.3139C44.991 27.3179 45.0903 27.3224 45.1897 27.3276C45.2207 27.3292 45.2517 27.3308 45.2827 27.3324C45.3506 27.3362 45.4185 27.3403 45.4864 27.3445C45.6198 27.3525 45.7531 27.3612 45.8862 27.3705C45.9237 27.3731 45.9611 27.3755 45.9986 27.3782C46.0898 27.3845 46.181 27.3921 46.2723 27.399C46.4908 27.4155 46.7089 27.4342 46.9269 27.4548C46.9288 27.4549 46.9307 27.4551 46.9326 27.4553C47.1881 27.4794 47.4433 27.5063 47.6982 27.5353C47.7449 27.5407 47.7917 27.5459 47.8384 27.5516C47.8587 27.554 47.879 27.5568 47.8993 27.5593C48.049 27.5776 48.1983 27.598 48.3474 27.6199C48.4096 27.6291 48.4718 27.638 48.5338 27.6478C48.5739 27.6541 48.614 27.6608 48.654 27.6674C48.7439 27.6821 48.8337 27.6975 48.9234 27.7136C48.9516 27.7187 48.9798 27.7237 49.008 27.7289C49.1149 27.7486 49.2216 27.7692 49.3279 27.7909C49.3427 27.7939 49.3575 27.7967 49.3722 27.7997C49.499 27.8258 49.6254 27.8535 49.7513 27.8824ZM57.8744 47.9194L55.3431 49.2219C55.3535 48.9802 55.3636 48.7385 55.3738 48.4968C55.3898 48.1188 55.4057 47.7409 55.4217 47.3629C55.4314 47.1384 55.4415 46.9139 55.4523 46.6894C55.4574 46.5896 55.462 46.4898 55.4678 46.3901C55.4798 46.1635 55.4936 45.937 55.5074 45.7104C55.5284 45.3416 55.5543 44.9729 55.5796 44.6042C55.5921 44.4318 55.6048 44.2595 55.619 44.0872C55.6195 44.0813 55.6199 44.0755 55.6204 44.0697C55.6288 43.968 55.6376 43.8664 55.647 43.7648C55.6626 43.5947 55.6805 43.4248 55.7014 43.2552C55.7021 43.25 55.7026 43.2448 55.7032 43.2396C55.71 43.1853 55.7177 43.1311 55.7252 43.0768C55.7425 42.9501 55.7635 42.8236 55.7841 42.6972C55.8408 42.3626 55.9063 42.0296 55.9764 41.6969C55.9802 41.6792 55.9839 41.6614 55.9877 41.6437C56.0191 41.4959 56.0522 41.3484 56.0859 41.201C56.0977 41.1492 56.1096 41.0974 56.1217 41.0457C56.1554 40.901 56.1894 40.7564 56.2244 40.6119C56.2633 40.4509 56.3015 40.2897 56.3401 40.1286C56.3574 40.0566 56.3755 39.9848 56.393 39.9128C56.4237 39.7869 56.454 39.661 56.4863 39.5354C56.5938 39.1172 56.7013 38.699 56.8088 38.2808C56.817 38.2491 56.8253 38.2173 56.8335 38.1856C56.9289 37.8152 57.0238 37.4448 57.1197 37.0745L58.1371 37.0745L57.8744 47.9194ZM57.559 60.9438L57.4716 64.5531C57.4716 64.5532 57.4716 64.5533 57.4716 64.5534C57.4364 64.4815 57.4012 64.4096 57.3661 64.3378C57.3613 64.3279 57.3567 64.3175 57.3519 64.3077C57.309 64.2205 57.2661 64.1333 57.2231 64.0461C57.0528 63.6981 56.8827 63.35 56.7114 63.0023C56.3873 62.3443 56.0633 61.6863 55.7392 61.0283C55.6566 60.8604 55.5732 60.6932 55.4977 60.5236C55.3569 60.202 55.2602 59.8754 55.2131 59.5314C55.2018 59.4491 55.1933 59.3665 55.1845 59.284C55.1845 59.274 55.1845 59.264 55.1844 59.254C55.1838 59.1084 55.1832 58.9628 55.1826 58.8172C55.1828 58.8031 55.1832 58.7889 55.1833 58.7749C55.187 58.0606 55.1908 57.3464 55.1945 56.6322C55.1956 56.4222 55.1967 56.2122 55.1978 56.0021C55.2018 55.5289 55.2058 55.0557 55.2098 54.5824C55.2104 54.5094 55.2109 54.4364 55.2115 54.3634C55.2153 54.1868 55.2197 54.0102 55.2231 53.8337C55.2271 53.6294 55.231 53.4251 55.235 53.2209C55.2405 52.9899 55.246 52.759 55.2514 52.5281C55.2611 52.1202 55.2708 51.7124 55.2805 51.3045C55.2843 51.301 55.2892 51.2978 55.2968 51.2948L57.804 50.8288L57.559 60.9438ZM30.5284 64.5533L30.441 60.9438L30.1961 50.8288L32.7071 51.2956C32.7125 51.2981 32.7164 51.3011 32.7194 51.3047C32.7278 51.6632 32.7363 52.0218 32.7448 52.3803C32.7521 52.686 32.7593 52.9916 32.7666 53.2973C32.7731 53.6346 32.7797 53.972 32.7862 54.3093C32.7879 54.3978 32.7884 54.4862 32.7899 54.5746C32.7942 55.085 32.7985 55.5954 32.8028 56.1058C32.8047 56.4702 32.8066 56.8345 32.8085 57.1989C32.8113 57.7397 32.8142 58.2804 32.817 58.8212C32.8164 58.9602 32.8159 59.0993 32.8153 59.2383C32.815 59.2438 32.8145 59.2494 32.8143 59.2549C32.813 59.2817 32.8115 59.3084 32.8096 59.3352C32.8025 59.4006 32.7959 59.4661 32.7869 59.5314C32.7358 59.905 32.6288 60.2585 32.4671 60.607C32.3889 60.7755 32.3064 60.9426 32.2235 61.1095C32.1965 61.1632 32.1696 61.2168 32.1432 61.2705C32.0646 61.4303 31.986 61.5901 31.9074 61.75C31.729 62.1124 31.5506 62.4747 31.3721 62.8371C31.1309 63.3273 30.8895 63.8175 30.6481 64.3077C30.6397 64.3248 30.6316 64.3429 30.6233 64.3604C30.5917 64.4247 30.5601 64.489 30.5284 64.5533ZM29.863 37.0748L30.8802 37.0748C30.9634 37.3961 31.0458 37.7177 31.1286 38.0391C31.2541 38.5264 31.3796 39.0137 31.5051 39.5011C31.5078 39.5117 31.5106 39.5223 31.5132 39.5329C31.5515 39.6815 31.5874 39.8305 31.6235 39.9795C31.6433 40.061 31.6635 40.1424 31.6832 40.2239C31.7257 40.4022 31.7679 40.5805 31.811 40.7586C31.9072 41.1555 31.9932 41.5543 32.0777 41.9532C32.098 42.0487 32.117 42.1443 32.1355 42.24C32.1374 42.2502 32.1395 42.2603 32.1415 42.2705C32.159 42.3629 32.1757 42.4554 32.1917 42.548C32.1935 42.5585 32.1955 42.5689 32.1973 42.5795C32.2324 42.7851 32.2636 42.9914 32.2912 43.198C32.3043 43.2966 32.3162 43.3955 32.3272 43.4945C32.355 43.7486 32.376 44.0033 32.3956 44.2579C32.399 44.3035 32.4027 44.3491 32.4059 44.3947C32.4357 44.8071 32.4649 45.2197 32.4882 45.6323C32.4985 45.8053 32.5089 45.9784 32.519 46.1515C32.527 46.2888 32.5349 46.4261 32.5413 46.5634C32.542 46.5764 32.5426 46.5893 32.5433 46.6022C32.5569 46.9033 32.5705 47.2043 32.5842 47.5053C32.596 47.7856 32.6078 48.0659 32.6197 48.3463C32.632 48.6381 32.6443 48.9299 32.6567 49.2217L30.1256 47.9194L29.863 37.0748ZM53.2312 77.4151C52.9912 77.6217 52.6179 77.7053 52.3045 77.7845C51.8525 77.8987 51.3898 77.9776 50.9272 78.0503C50.7701 78.075 50.6126 78.0974 50.4551 78.1202C50.157 78.1633 49.8585 78.2046 49.5598 78.2435C49.0874 78.3049 48.6138 78.3614 48.1394 78.4095C47.893 78.4345 47.6461 78.4569 47.3987 78.4731C47.2087 78.4855 47.0138 78.4982 46.824 78.4776C46.6351 78.4573 46.4546 78.396 46.2714 78.3537C46.0908 78.3121 45.9083 78.2842 45.7217 78.2758C45.2538 78.2549 44.7789 78.2797 44.3101 78.2789C43.8499 78.278 43.3896 78.2837 42.9294 78.2783C42.5159 78.2734 42.1205 78.2623 41.7175 78.3563C41.5343 78.399 41.3534 78.46 41.164 78.4789C40.9689 78.4984 40.7689 78.4847 40.5739 78.4713C40.0979 78.4385 39.6238 78.3866 39.1506 78.3309C38.6509 78.2722 38.153 78.2043 37.6549 78.1361C37.6176 78.131 37.5804 78.1255 37.5431 78.1202C37.1444 78.0643 36.7465 78.0019 36.3517 77.9277C35.9275 77.8479 35.4853 77.7592 35.0904 77.5979C34.8627 77.505 34.6577 77.3728 34.6031 77.147C34.5716 77.0168 34.5814 76.8804 34.5966 76.7491C34.62 76.5484 34.6571 76.3484 34.6957 76.1496C34.7678 75.7771 34.8439 75.3808 35.0223 75.0341C35.1043 74.8747 35.2279 74.7454 35.3548 74.6119H35.3556C35.3594 74.614 35.3631 74.6161 35.3669 74.6181C35.756 74.8222 36.1823 74.9545 36.6178 75.0596C36.6219 75.0606 36.6259 75.0618 36.63 75.0627C36.6317 75.0632 36.6335 75.0635 36.6353 75.0639C36.6453 75.0663 36.6553 75.0689 36.6653 75.0713C36.8059 75.1046 36.9473 75.1351 37.089 75.1644C37.1406 75.1751 37.1923 75.1851 37.244 75.1953C37.3415 75.2146 37.4392 75.2331 37.5371 75.2509C37.5972 75.2618 37.6573 75.2729 37.7176 75.2833C37.8514 75.3064 37.9855 75.3286 38.1197 75.3497C38.1342 75.352 38.1486 75.3539 38.1631 75.3562C38.1643 75.3563 38.1655 75.3565 38.1667 75.3567C38.335 75.3824 38.5036 75.4064 38.6723 75.4292C38.6751 75.4296 38.6779 75.4301 38.6808 75.4304C38.6842 75.4309 38.6876 75.4313 38.6909 75.4317C38.8244 75.4498 38.9582 75.4664 39.0919 75.4829C39.2139 75.4977 39.3359 75.512 39.458 75.5259C39.4895 75.5294 39.5209 75.5332 39.5524 75.5367C39.5601 75.5376 39.5679 75.5383 39.5756 75.5392C39.7365 75.5571 39.8977 75.5732 40.0588 75.5894C40.2414 75.6073 40.4242 75.6241 40.6071 75.6398C40.6668 75.6449 40.7264 75.6506 40.7861 75.6555C40.8002 75.6566 40.8143 75.6575 40.8284 75.6586C40.8741 75.6622 40.9197 75.6669 40.9654 75.6703C41.0372 75.6756 41.1092 75.6799 41.1811 75.685C41.2722 75.6915 41.3633 75.6976 41.4544 75.7037C41.7937 75.7263 42.1332 75.7467 42.4732 75.7607C42.5459 75.7636 42.6187 75.7646 42.6914 75.767C42.7687 75.7701 42.846 75.7735 42.9233 75.7763C42.9034 75.9153 42.911 76.0583 42.9276 76.1967C42.934 76.2502 42.9428 76.3049 42.9645 76.3555C42.9717 76.3725 42.9803 76.3891 42.9909 76.405C43.0902 76.5545 43.3024 76.563 43.4784 76.5663C43.8588 76.5736 44.2494 76.5864 44.629 76.5622C44.7939 76.5516 44.9574 76.5161 45.029 76.3699C45.0629 76.3008 45.0703 76.2233 45.0773 76.1493C45.0891 76.0255 45.0945 75.8998 45.0767 75.7763H45.0766C45.0766 75.7761 45.0766 75.7759 45.0765 75.7758C45.1604 75.7728 45.2443 75.7697 45.3282 75.7668C45.3614 75.7657 45.3946 75.7655 45.4278 75.7643C45.4684 75.7628 45.5089 75.7607 45.5494 75.759C45.5551 75.7588 45.5607 75.7587 45.5664 75.7584C45.5731 75.7581 45.5799 75.7577 45.5867 75.7574C45.7609 75.7498 45.9351 75.7412 46.1092 75.7313C46.1109 75.7312 46.1125 75.7311 46.1141 75.731C46.2864 75.7213 46.4585 75.7103 46.6305 75.6984C46.6484 75.6972 46.6662 75.696 46.6841 75.6947C46.7626 75.6893 46.8411 75.684 46.9196 75.6784C47.1952 75.6588 47.4706 75.6345 47.7458 75.6083C47.7461 75.6082 47.7465 75.6082 47.7468 75.6082C47.8895 75.595 48.032 75.5806 48.1745 75.5659C48.2134 75.5617 48.2526 75.5585 48.2915 75.5541C48.2934 75.5539 48.2954 75.5537 48.2974 75.5535C48.3087 75.5522 48.32 75.5509 48.3313 75.5496C48.6957 75.5107 49.0594 75.4663 49.4219 75.4159C49.5585 75.3973 49.695 75.3779 49.8313 75.3572C49.8975 75.3472 49.9635 75.3363 50.0296 75.3258C50.0601 75.3209 50.0905 75.3162 50.1209 75.3113C50.1538 75.306 50.1866 75.3004 50.2194 75.2949C50.63 75.227 51.0401 75.1472 51.4412 75.0451C51.5288 75.0233 51.616 75.0006 51.7026 74.9762C51.7212 74.9709 51.7397 74.9655 51.7582 74.9601C51.7891 74.9511 51.8202 74.9427 51.8509 74.9334C51.8604 74.9305 51.8695 74.927 51.879 74.924C52.1067 74.8531 52.3288 74.7695 52.5407 74.6652C52.5755 74.648 52.6097 74.6299 52.6439 74.6118H52.6451C52.7775 74.7509 52.9043 74.8854 52.9872 75.0529C53.0714 75.223 53.1256 75.4049 53.1743 75.5849C53.2787 75.9701 53.3607 76.3661 53.4046 76.7603C53.4301 76.9901 53.4327 77.2417 53.2312 77.4151ZM56.9351 72.4771C56.9318 72.5393 56.9293 72.6016 56.9254 72.6638C56.9099 72.9154 56.9061 73.1809 56.8413 73.4273C56.8304 73.4687 56.8148 73.5462 56.7512 73.5424C56.6888 73.5386 56.6375 73.4499 56.611 73.4095C56.4627 73.1828 56.3713 72.9232 56.275 72.6773C56.249 72.6108 56.2247 72.5438 56.1996 72.4771C56.0216 72.0049 55.8631 71.5265 55.7174 71.0461C55.5555 70.5124 55.3872 69.9689 55.3769 69.4137C55.365 68.7774 55.4037 68.1386 55.4202 67.5025C55.4341 66.9683 55.4555 66.4335 55.494 65.9003C55.5042 65.7805 55.5115 65.6591 55.5355 65.5406C55.5463 65.4872 55.5699 65.3965 55.6147 65.4882C55.6155 65.4899 55.6161 65.4918 55.6169 65.4935C55.6697 65.6036 55.6981 65.7276 55.7337 65.8422C55.8246 66.1355 55.9082 66.4306 55.993 66.7254C56.1455 67.2563 56.2903 67.791 56.4149 68.3275C56.5547 68.9294 56.6797 69.5335 56.815 70.1361C56.8735 70.3973 56.9429 70.649 56.9567 70.9159C56.9723 71.2159 56.9665 71.5169 56.9606 71.817C56.9569 72.0021 56.9495 72.1872 56.9406 72.3722C56.9389 72.4072 56.937 72.4421 56.9351 72.4771ZM31.0432 70.9159C31.0571 70.649 31.1264 70.3973 31.185 70.1361C31.3202 69.5335 31.4453 68.9294 31.5851 68.3275C31.7097 67.791 31.8545 67.2563 32.007 66.7254C32.0917 66.4306 32.1753 66.1355 32.2663 65.8422C32.3018 65.7276 32.3302 65.6036 32.3831 65.4935C32.3839 65.4918 32.3845 65.4899 32.3853 65.4882C32.43 65.3965 32.4536 65.4872 32.4645 65.5406C32.4886 65.6591 32.4958 65.7805 32.5059 65.9003C32.5445 66.4335 32.5659 66.9683 32.5797 67.5025C32.5962 68.1386 32.635 68.7774 32.6231 69.4137C32.6127 69.9689 32.4445 70.5124 32.2826 71.0461C32.1369 71.5265 31.9784 72.005 31.8003 72.4772C31.7752 72.5439 31.7509 72.6108 31.7249 72.6773C31.6287 72.9232 31.5373 73.1828 31.3889 73.4095C31.3624 73.4499 31.3112 73.5386 31.2487 73.5424C31.1852 73.5462 31.1695 73.4687 31.1587 73.4273C31.0938 73.1809 31.0901 72.9154 31.0745 72.6638C31.0707 72.6017 31.0681 72.5394 31.0648 72.4772C31.063 72.4422 31.0611 72.4072 31.0594 72.3722C31.0504 72.1872 31.043 72.0021 31.0394 71.817C31.0334 71.5169 31.0277 71.2159 31.0432 70.9159ZM28.8198 18.2258C28.8301 17.8359 28.8955 17.4462 29.0051 17.0684C29.1154 16.6882 29.2755 16.3187 29.4707 15.9657C29.6497 15.642 29.8573 15.3251 30.1395 15.0609C30.453 14.7673 30.8191 14.5103 31.1786 14.2613C31.5477 14.0056 31.9307 13.7673 32.3353 13.5563C32.7418 13.3443 33.1649 13.1569 33.5889 12.9732C33.7901 12.8861 33.9919 12.7982 34.1986 12.7214C34.3036 12.6823 34.4215 12.636 34.5384 12.634C34.7868 12.6297 34.6768 12.841 34.5936 12.9573C34.3792 13.137 34.1901 13.3462 34.006 13.5367C33.6643 13.8904 33.3309 14.2508 33.0032 14.6145C32.652 15.0041 32.2982 15.3925 31.9528 15.786C31.6022 16.1855 31.2517 16.585 30.9099 16.9903C30.5537 17.4128 30.2074 17.8411 29.8617 18.2702C29.8329 18.3061 29.7994 18.3383 29.7787 18.3755L29.7626 18.3936C29.7076 18.4686 29.6485 18.5413 29.5868 18.6122C29.4753 18.7403 29.3546 18.8736 29.2062 18.971C29.1382 19.0156 29.049 19.0613 28.9704 19.0087C28.9148 18.9714 28.8866 18.9075 28.8693 18.8445C28.8695 18.8443 28.8697 18.844 28.8699 18.8437L28.8693 18.8445C28.8616 18.8166 28.8559 18.7889 28.8512 18.7639C28.8181 18.5871 28.8151 18.4045 28.8198 18.2258ZM53.5267 12.6406C53.7191 12.6711 53.9028 12.7589 54.0773 12.8319C54.343 12.9429 54.6065 13.0575 54.8687 13.1747C55.3404 13.3856 55.8031 13.6135 56.2374 13.8791C56.6861 14.1534 57.1122 14.4572 57.5207 14.7755C57.8922 15.065 58.1805 15.3828 58.4142 15.7673C58.6563 16.1656 58.8505 16.589 58.982 17.0252C59.114 17.4633 59.1877 17.9203 59.1811 18.3738C59.1801 18.4415 59.1863 18.6778 59.1335 18.8482L59.1302 18.8437C59.1312 18.8452 59.1323 18.8468 59.1334 18.8483C59.0954 18.9708 59.027 19.0595 58.9024 19.0257C58.747 18.9836 58.6143 18.8287 58.5164 18.726C58.416 18.6206 58.3264 18.5085 58.2374 18.3958C58.2374 18.3951 58.2373 18.3944 58.2373 18.3936L58.2373 18.3956C58.1987 18.3468 58.1602 18.2979 58.121 18.2493C57.7757 17.8206 57.4295 17.3932 57.0736 16.9712C56.7343 16.5687 56.3858 16.1722 56.0376 15.7754C55.6939 15.3838 55.3419 14.9971 54.9921 14.6095C54.6582 14.2396 54.3187 13.873 53.9708 13.513C53.7953 13.3314 53.6142 13.1353 53.411 12.9641C53.3607 12.8978 53.2936 12.8011 53.3009 12.7237C53.3097 12.6292 53.4459 12.6278 53.5267 12.6406Z" fill="black"/>
</svg>
