<svg width="15" height="15" viewBox="0 0 15 15" fill="none" xmlns="http://www.w3.org/2000/svg">
<path d="M12.0121 8.56168L11.0389 6.61525C10.9553 6.47934 10.8382 6.36725 10.6987 6.28977C10.5593 6.21229 10.4022 6.17203 10.2426 6.17288H4.75726C4.59772 6.17203 4.44065 6.21229 4.30119 6.28977C4.16172 6.36725 4.04456 6.47934 3.96099 6.61525L2.98778 8.56168L1.8907 9.5809C1.84612 9.62224 1.81054 9.67234 1.78618 9.72805C1.76183 9.78377 1.74922 9.8439 1.74915 9.90471V13.6932C1.74915 13.8105 1.79575 13.923 1.87871 14.006C1.96167 14.0889 2.07419 14.1355 2.19152 14.1355H3.96099C4.13794 14.1355 4.40336 13.9586 4.40336 13.7816V13.2508H10.5965V13.6932C10.5965 13.8701 10.7735 14.1355 10.9504 14.1355H12.8084C12.9257 14.1355 13.0382 14.0889 13.1212 14.006C13.2042 13.923 13.2508 13.8105 13.2508 13.6932V9.90471C13.2507 9.8439 13.2381 9.78377 13.2137 9.72805C13.1894 9.67234 13.1538 9.62224 13.1092 9.5809L12.0121 8.56168ZM4.84573 7.05762H10.1542L11.0389 8.8271H3.96099L4.84573 7.05762ZM5.2881 11.1274C5.2881 11.3044 5.02268 11.4813 4.84573 11.4813H2.98778C2.81083 11.4813 2.63389 11.2159 2.63389 11.0389V10.0657C2.72236 9.80031 2.89931 9.62336 3.16473 9.71184L4.93421 10.0657C5.11116 10.0657 5.2881 10.3312 5.2881 10.5081V11.1274ZM12.366 11.0389C12.366 11.2159 12.1891 11.4813 12.0121 11.4813H10.1542C9.97722 11.4813 9.7118 11.3044 9.7118 11.1274V10.5081C9.7118 10.3312 9.88875 10.0657 10.0657 10.0657L11.8352 9.71184C12.1006 9.62336 12.2775 9.80031 12.366 10.0657V11.0389ZM7.94232 4.4034H7.05758L6.17284 0.864441H8.82706L7.94232 4.4034ZM1.83762 2.45697L4.13794 1.12986L5.11116 4.66882L4.40336 5.02272L1.83762 2.45697ZM10.862 1.12986L13.1623 2.45697L10.5965 5.11119L9.80028 4.66882L10.862 1.12986Z" fill="black"/>
</svg>
