<svg width="20" height="20" viewBox="0 0 20 20" fill="none" xmlns="http://www.w3.org/2000/svg">
<path d="M0.634045 15.918C0.703475 16.2196 0.850985 16.4976 1.06178 16.7242C1.27258 16.9508 1.53925 17.118 1.83504 17.209L2.01504 18H2.00004V20H18V18H4.68304C4.69617 17.9076 4.69381 17.8136 4.67604 17.722L4.48004 16.859L14.837 14.503L15.033 15.366C15.0853 15.595 15.2262 15.7938 15.425 15.9189C15.6238 16.044 15.864 16.085 16.093 16.033L16.956 15.836C17.0695 15.8103 17.1767 15.7624 17.2717 15.6952C17.3666 15.628 17.4473 15.5427 17.5093 15.4443C17.5712 15.3458 17.6132 15.2361 17.6327 15.1215C17.6522 15.0068 17.6489 14.8894 17.623 14.776L17.372 13.673C17.818 13.257 18.042 12.627 17.897 11.99L17.307 9.4C17.2355 9.08797 17.0801 8.80137 16.8577 8.57107C16.6354 8.34077 16.3544 8.17548 16.045 8.093L13.996 4.715C13.6939 4.21869 13.2435 3.82979 12.7085 3.60318C12.1734 3.37657 11.5808 3.32369 11.014 3.452L3.14604 5.242C2.57873 5.37051 2.06629 5.67442 1.68144 6.11061C1.2966 6.54679 1.05889 7.09309 1.00205 7.672L0.615045 11.604C0.372314 11.8124 0.190984 12.0831 0.0905524 12.3868C-0.00987867 12.6906 -0.0256117 13.016 0.045045 13.328L0.634045 15.918V15.918ZM3.65404 15.23C3.48405 15.2687 3.30809 15.2736 3.13621 15.2444C2.96432 15.2151 2.79989 15.1523 2.65229 15.0594C2.50469 14.9666 2.37682 14.8457 2.27597 14.7034C2.17513 14.5612 2.10328 14.4005 2.06454 14.2305C2.0258 14.0605 2.02093 13.8845 2.05019 13.7127C2.07945 13.5408 2.14229 13.3763 2.2351 13.2287C2.32791 13.0811 2.44889 12.9533 2.59112 12.8524C2.73335 12.7516 2.89405 12.6797 3.06404 12.641C3.40737 12.5628 3.76771 12.6241 4.0658 12.8116C4.36389 12.999 4.57531 13.2972 4.65354 13.6405C4.73178 13.9838 4.67043 14.3442 4.48299 14.6423C4.29555 14.9403 3.99737 15.1518 3.65404 15.23V15.23ZM14.876 12.678C14.7031 12.7255 14.5224 12.7375 14.3447 12.7133C14.1671 12.6891 13.9961 12.6292 13.8422 12.5371C13.6884 12.445 13.5547 12.3228 13.4494 12.1777C13.344 12.0326 13.2692 11.8676 13.2293 11.6928C13.1894 11.518 13.1854 11.3369 13.2174 11.1604C13.2494 10.984 13.3168 10.8159 13.4156 10.6662C13.5143 10.5165 13.6423 10.3884 13.7919 10.2895C13.9416 10.1907 14.1096 10.1231 14.286 10.091C14.6226 10.0297 14.9698 10.1006 15.2554 10.289C15.5409 10.4774 15.7427 10.7687 15.8188 11.1022C15.8949 11.4357 15.8393 11.7857 15.6637 12.0793C15.488 12.3729 15.2059 12.5873 14.876 12.678V12.678ZM3.58905 7.192L11.458 5.401C11.6157 5.36537 11.7806 5.38008 11.9295 5.44304C12.0784 5.506 12.2038 5.61405 12.288 5.752L13.873 8.365L13.307 8.494L3.26104 10.781L2.69304 10.91L2.99204 7.868C3.00814 7.70697 3.07444 7.55506 3.18157 7.43376C3.28869 7.31245 3.43124 7.22788 3.58905 7.192V7.192ZM16.405 2L15 0L14.5 3L17 7L20 8L18 5.461L20 4.528L18 3.595L20 0L16.405 2Z" fill="black"/>
</svg>
