<svg width="24" height="24" viewBox="0 0 24 24" fill="none" xmlns="http://www.w3.org/2000/svg">
<path d="M13 4.80005C9 4.80005 9 19.2 13 19.2C17 19.2 22 16.5 22 12C22 7.50005 17 4.80005 13 4.80005ZM13.1 17.2C12.7 16.8 12 15 12 12C12 9.00005 12.7 7.20005 13.1 6.80005C16 6.90005 20 8.70005 20 12C20 15.3 16 17.1 13.1 17.2ZM2 5.00005H9.5C9.3 5.40005 9 5.80005 8.9 6.40005C8.8 6.60005 8.8 6.80005 8.7 7.00005H2V5.00005ZM8 11H2V9.00005H8.2C8.1 9.60005 8.1 10.3 8 11V11ZM8.7 17C8.9 17.8 9.2 18.4 9.6 19H2.1V17H8.7ZM8.2 15H2V13H8C8.1 13.7 8.1 14.4 8.2 15Z" fill="black"/>
</svg>
