<svg width="24" height="25" viewBox="0 0 24 25" fill="none" xmlns="http://www.w3.org/2000/svg">
<path d="M2 5.13037C2 4.93146 2.07902 4.74069 2.21967 4.60004C2.36033 4.45939 2.55109 4.38037 2.75 4.38037H3.89C5.325 4.38037 6.59 5.32137 7.003 6.69637L7.867 9.57737C8.49249 9.80644 9.03251 10.2221 9.41401 10.7682C9.7955 11.3142 10.0001 11.9643 10 12.6304V15.1304C10.0002 15.6437 9.85669 16.1468 9.58577 16.5828C9.31485 17.0188 8.92731 17.3702 8.467 17.5974C8.35013 18.4113 7.92905 19.1507 7.28863 19.6665C6.64822 20.1823 5.83609 20.4362 5.01592 20.377C4.19575 20.3178 3.42852 19.9498 2.86886 19.3474C2.3092 18.7449 1.99872 17.9527 2 17.1304V10.1304C2 9.93146 2.07902 9.74069 2.21967 9.60004C2.36033 9.45939 2.55109 9.38037 2.75 9.38037H6.242L5.566 7.12737C5.45784 6.76695 5.23639 6.45099 4.93448 6.22636C4.63258 6.00173 4.26631 5.8804 3.89 5.88037H2.75C2.55109 5.88037 2.36033 5.80135 2.21967 5.6607C2.07902 5.52005 2 5.32928 2 5.13037ZM3.5 17.1304C3.5 17.5945 3.68438 18.0396 4.01257 18.3678C4.34076 18.696 4.78588 18.8804 5.25 18.8804C5.71413 18.8804 6.15925 18.696 6.48744 18.3678C6.81563 18.0396 7 17.5945 7 17.1304C7 16.6662 6.81563 16.2211 6.48744 15.8929C6.15925 15.5647 5.71413 15.3804 5.25 15.3804C4.78588 15.3804 4.34076 15.5647 4.01257 15.8929C3.68438 16.2211 3.5 16.6662 3.5 17.1304V17.1304ZM16.23 9.54037L18.379 5.95837C18.6678 5.47708 19.0762 5.07877 19.5646 4.80223C20.053 4.5257 20.6047 4.38036 21.166 4.38037H21.25C21.4489 4.38037 21.6397 4.45939 21.7803 4.60004C21.921 4.74069 22 4.93146 22 5.13037C22 5.32928 21.921 5.52005 21.7803 5.6607C21.6397 5.80135 21.4489 5.88037 21.25 5.88037H21.166C20.8639 5.88051 20.5669 5.95888 20.3041 6.10783C20.0412 6.25679 19.8214 6.47126 19.666 6.73037L18.075 9.38037H21.269C21.3679 9.38295 21.4654 9.40509 21.5557 9.44551C21.6461 9.48593 21.7275 9.54383 21.7954 9.61587C21.8632 9.68791 21.9162 9.77268 21.9511 9.86527C21.9861 9.95786 22.0023 10.0565 21.999 10.1554V17.1304C21.999 17.3293 21.92 17.52 21.7793 17.6607C21.6387 17.8014 21.4479 17.8804 21.249 17.8804H20.412C20.2428 18.5925 19.8382 19.2267 19.2637 19.6802C18.6892 20.1338 17.9785 20.3803 17.2465 20.3797C16.5146 20.3791 15.8042 20.1315 15.2305 19.6771C14.6567 19.2226 14.2531 18.5878 14.085 17.8754C13.3855 17.8333 12.7284 17.5258 12.248 17.0156C11.7676 16.5055 11.5 15.8311 11.5 15.1304V13.7554C11.5 13.1267 11.6823 12.5115 12.0249 11.9843C12.3674 11.4572 12.8555 11.0407 13.43 10.7854L16.23 9.54137V9.54037ZM17.25 15.3804C16.7859 15.3804 16.3408 15.5647 16.0126 15.8929C15.6844 16.2211 15.5 16.6662 15.5 17.1304C15.5 17.5945 15.6844 18.0396 16.0126 18.3678C16.3408 18.696 16.7859 18.8804 17.25 18.8804C17.7141 18.8804 18.1593 18.696 18.4874 18.3678C18.8156 18.0396 19 17.5945 19 17.1304C19 16.6662 18.8156 16.2211 18.4874 15.8929C18.1593 15.5647 17.7141 15.3804 17.25 15.3804ZM10.25 5.38037C10.4489 5.38037 10.6397 5.45939 10.7803 5.60004C10.921 5.74069 11 5.93146 11 6.13037V8.13037C11 8.32928 10.921 8.52005 10.7803 8.6607C10.6397 8.80135 10.4489 8.88037 10.25 8.88037C10.0511 8.88037 9.86033 8.80135 9.71967 8.6607C9.57902 8.52005 9.5 8.32928 9.5 8.13037V6.13037C9.5 5.93146 9.57902 5.74069 9.71967 5.60004C9.86033 5.45939 10.0511 5.38037 10.25 5.38037ZM14.35 8.08037C14.4694 7.92124 14.5206 7.72122 14.4925 7.5243C14.4643 7.32739 14.3591 7.14972 14.2 7.03037C14.1212 6.97128 14.0315 6.92828 13.9361 6.90384C13.8407 6.87939 13.7414 6.87398 13.6439 6.88791C13.447 6.91604 13.2694 7.02124 13.15 7.18037L11.65 9.18037C11.5909 9.25916 11.5479 9.34883 11.5235 9.44424C11.499 9.53965 11.4936 9.63894 11.5075 9.73644C11.5215 9.83394 11.5545 9.92774 11.6046 10.0125C11.6548 10.0972 11.7212 10.1713 11.8 10.2304C11.8788 10.2895 11.9685 10.3325 12.0639 10.3569C12.1593 10.3813 12.2586 10.3868 12.3561 10.3728C12.4536 10.3589 12.5474 10.3259 12.6321 10.2757C12.7169 10.2255 12.7909 10.1592 12.85 10.0804L14.35 8.08037V8.08037Z" fill="black"/>
</svg>
