<svg width="55" height="55" viewBox="0 0 55 55" fill="none" xmlns="http://www.w3.org/2000/svg">
<path d="M55 33.3928V36.0119L34.0476 42.5595L15.7143 37.5833V41.25H0V12.4404H20.9524L37.1905 18.4642C39.8095 19.5119 41.9048 22.3928 41.9048 25.5357H47.1429C51.5952 25.5357 55 28.9404 55 33.3928ZM10.4762 36.0119V17.6785H5.2381V36.0119H10.4762ZM49.5 32.3452C48.9762 31.2976 48.1905 30.7738 47.1429 30.7738H33C31.6905 30.7738 30.119 30.5119 28.8095 30.25L22.7857 28.1547L24.3571 23.1785L30.6429 25.2738C31.4286 25.2738 36.6667 25.5357 36.6667 25.5357C36.6667 24.488 36.1429 23.7023 35.0952 23.4404L19.9048 17.6785H15.7143V32.0833L34.0476 37.0595L49.5 32.3452V32.3452Z" fill="black"/>
</svg>
