<svg width="56" height="55" viewBox="0 0 56 55" fill="none" xmlns="http://www.w3.org/2000/svg">
<path d="M51.3103 34.375V36.6667L32.977 42.3958L16.9353 38.0417V41.25H3.1853V16.0417H21.5186L35.727 21.3125C38.0186 22.2292 39.852 24.75 39.852 27.5H44.4353C48.3311 27.5 51.3103 30.4792 51.3103 34.375ZM12.352 36.6667V20.625H7.76864V36.6667H12.352ZM46.4978 33.4583C46.0395 32.5417 45.352 32.0833 44.4353 32.0833H32.0603C30.9145 32.0833 29.5395 31.8542 28.3936 31.625L23.1228 29.7917L24.4978 25.4375L29.9978 27.2708C30.6853 27.2708 35.2686 27.5 35.2686 27.5C35.2686 26.5833 34.8103 25.8958 33.8936 25.6667L20.602 20.625H16.9353V33.2292L32.977 37.5833L46.4978 33.4583Z" fill="black"/>
</svg>
