<svg width="48" height="48" viewBox="0 0 48 48" fill="none" xmlns="http://www.w3.org/2000/svg">
<path d="M24.2341 4.51178C20.3125 4.51178 16.4789 5.67468 13.2182 7.85342C9.95751 10.0322 7.41608 13.1289 5.91534 16.752C4.4146 20.3751 4.02193 24.3619 4.78701 28.2082C5.55208 32.0545 7.44053 35.5875 10.2135 38.3605C12.9866 41.1335 16.5196 43.022 20.3659 43.787C24.2121 44.5521 28.1989 44.1594 31.822 42.6587C35.4451 41.158 38.5419 38.6165 40.7206 35.3558C42.8994 32.0951 44.0623 28.2615 44.0623 24.3399C44.0563 19.083 41.9654 14.0431 38.2482 10.3259C34.531 6.60864 29.4911 4.51771 24.2341 4.51178ZM24.2341 39.7618C21.184 39.7618 18.2023 38.8573 15.6662 37.1627C13.1301 35.4681 11.1534 33.0596 9.98619 30.2416C8.81894 27.4236 8.51354 24.3228 9.10859 21.3312C9.70365 18.3397 11.1724 15.5918 13.3292 13.435C15.486 11.2782 18.2339 9.80941 21.2255 9.21436C24.217 8.6193 27.3179 8.92471 30.1358 10.0919C32.9538 11.2592 35.3624 13.2359 37.057 15.772C38.7515 18.3081 39.656 21.2897 39.656 24.3399C39.6513 28.4286 38.0251 32.3485 35.1339 35.2397C32.2427 38.1308 28.3228 39.7571 24.2341 39.7618ZM14.6873 20.668C14.6873 20.087 14.8595 19.5191 15.1823 19.036C15.5051 18.553 15.9639 18.1765 16.5006 17.9541C17.0374 17.7318 17.628 17.6736 18.1978 17.787C18.7677 17.9003 19.2911 18.1801 19.7019 18.5909C20.1127 19.0017 20.3925 19.5251 20.5058 20.095C20.6192 20.6648 20.561 21.2554 20.3387 21.7922C20.1163 22.3289 19.7398 22.7877 19.2568 23.1105C18.7737 23.4332 18.2057 23.6055 17.6248 23.6055C16.8457 23.6055 16.0985 23.296 15.5476 22.7452C14.9968 22.1943 14.6873 21.4471 14.6873 20.668ZM33.781 20.668C33.781 21.249 33.6087 21.8169 33.286 22.3C32.9632 22.7831 32.5044 23.1596 31.9676 23.3819C31.4309 23.6043 30.8403 23.6624 30.2704 23.5491C29.7006 23.4357 29.1772 23.156 28.7664 22.7452C28.3556 22.3343 28.0758 21.8109 27.9625 21.2411C27.8491 20.6713 27.9073 20.0807 28.1296 19.5439C28.3519 19.0071 28.7285 18.5484 29.2115 18.2256C29.6946 17.9028 30.2625 17.7305 30.8435 17.7305C31.6226 17.7305 32.3698 18.04 32.9206 18.5909C33.4715 19.1418 33.781 19.889 33.781 20.668ZM32.7876 30.6164C32.972 30.8408 33.1103 31.0993 33.1944 31.3773C33.2786 31.6553 33.3069 31.9471 33.2779 32.2361C33.2488 32.525 33.1629 32.8054 33.0251 33.061C32.8873 33.3167 32.7003 33.5425 32.4749 33.7256C32.2495 33.9088 31.9901 34.0455 31.7117 34.128C31.4332 34.2105 31.1412 34.2371 30.8524 34.2063C30.5636 34.1756 30.2838 34.088 30.029 33.9487C29.7741 33.8094 29.5494 33.6211 29.3676 33.3946C28.7479 32.6306 27.9654 32.0145 27.0773 31.5914C26.1892 31.1683 25.2178 30.9487 24.2341 30.9487C23.2503 30.9487 22.279 31.1683 21.3909 31.5915C20.5028 32.0147 19.7204 32.6307 19.1007 33.3948C18.9183 33.6193 18.6934 33.8058 18.4389 33.9434C18.1845 34.0811 17.9054 34.1673 17.6176 34.1971C17.3298 34.2269 17.039 34.1998 16.7617 34.1172C16.4844 34.0346 16.2261 33.8982 16.0015 33.7158C15.7769 33.5333 15.5905 33.3085 15.4528 33.054C15.3152 32.7995 15.229 32.5205 15.1992 32.2327C15.1693 31.9449 15.1965 31.654 15.2791 31.3768C15.3617 31.0995 15.4981 30.8412 15.6805 30.6166C16.7134 29.344 18.0172 28.3179 19.4969 27.6131C20.9767 26.9083 22.595 26.5426 24.234 26.5426C25.873 26.5426 27.4914 26.9083 28.9711 27.613C30.4508 28.3178 31.7547 29.3438 32.7876 30.6164Z" fill="#C0CEE1"/>
</svg>
