<svg width="24" height="24" viewBox="0 0 24 24" fill="none" xmlns="http://www.w3.org/2000/svg">
<path d="M7.32005 10.56L8.38005 9.50001L7.32005 8.44001L8.38005 7.38001L10.5001 9.50001L8.38005 11.62L7.32005 10.56V10.56ZM4.50005 9.00001C4.53005 9.00001 4.55005 9.01001 4.58005 9.01001C5.17655 7.53042 6.20168 6.2629 7.52382 5.37018C8.84596 4.47747 10.4048 4.00033 12.0001 4.00001C14.1901 4.00001 16.1601 4.88001 17.6101 6.30001C17.7601 5.70001 18.0601 5.01001 18.4201 4.34001C16.6201 2.82552 14.3424 1.99663 11.9901 2.00001C7.11005 2.00001 3.05005 5.51001 2.18005 10.14C2.74005 9.44001 3.59005 9.00001 4.50005 9.00001ZM21.0001 10.5C20.5801 10.5 20.1801 10.41 19.8101 10.28C19.9301 10.83 20.0001 11.41 20.0001 12C20.0001 16.42 16.4201 20 12.0001 20C8.64005 20 5.77005 17.93 4.58005 14.99C4.55005 14.99 4.53005 15 4.50005 15C3.98005 15 3.46005 14.86 3.00005 14.6C2.68005 14.42 2.41005 14.18 2.18005 13.9C3.07005 18.51 7.11005 22 11.9801 22C17.5201 22 22.0001 17.52 22.0001 12C22.0001 11.45 21.9401 10.91 21.8601 10.38C21.5795 10.4556 21.2906 10.4959 21.0001 10.5V10.5ZM21.0001 3.00001C21.0001 3.00001 19.0001 5.90001 19.0001 7.00001C19.0001 8.10001 19.9001 9.00001 21.0001 9.00001C22.1001 9.00001 23.0001 8.10001 23.0001 7.00001C23.0001 5.90001 21.0001 3.00001 21.0001 3.00001ZM15.6201 7.38001L13.5001 9.50001L15.6201 11.62L16.6801 10.56L15.6201 9.50001L16.6801 8.44001L15.6201 7.38001V7.38001ZM8.56005 17C9.25005 15.81 10.5301 15 12.0001 15C13.4701 15 14.7501 15.81 15.4401 17H17.1201C16.3201 14.95 14.3301 13.5 12.0001 13.5C11.1301 13.5 10.3001 13.7 9.57005 14.07L5.99005 12C5.99005 11.48 5.73005 10.98 5.25005 10.71C4.53005 10.3 3.62005 10.54 3.20005 11.26C2.79005 11.98 3.03005 12.89 3.75005 13.31C4.23005 13.59 4.80005 13.56 5.24005 13.31L8.21005 15.03C7.64005 15.56 7.18005 16.24 6.88005 17H8.56005V17Z" fill="black"/>
</svg>
