<svg width="120" height="121" viewBox="0 0 120 121" fill="none" xmlns="http://www.w3.org/2000/svg">
<path d="M56.25 11.6303C50.0813 11.6303 45 16.7116 45 22.8803L45.06 22.2653L41.3663 44.4278L34.2787 63.8228C34.1437 63.9991 33.9825 64.1303 33.75 64.1303H30V60.3803H11.25V109.13H30V97.8803H44.7225C50.8875 97.8803 56.4412 94.8916 60 90.2491C63.5625 94.8916 69.1125 97.8803 75.2775 97.8803H90V109.13H108.75V60.3803H90V64.1303H86.25C86.0137 64.1303 85.8563 63.9991 85.725 63.8228L78.6337 44.4278L74.94 22.2653L75 22.8803C75 16.7116 69.9187 11.6303 63.75 11.6303C62.475 11.6303 61.17 11.8778 60 12.4816C58.835 11.9051 57.5498 11.6133 56.25 11.6303V11.6303ZM56.1188 19.1903C56.1938 19.7303 56.25 20.9603 56.25 22.8803V80.7728C55.7588 83.4712 54.3355 85.9112 52.2286 87.6672C50.1218 89.4231 47.4652 90.3834 44.7225 90.3803H30V71.6303H33.75C36.6938 71.6303 39.435 70.0328 40.8825 67.4678L41.0325 67.1903L48.6337 46.3328L52.5 23.1878V22.8803C52.5 20.8178 54.0825 19.2616 56.1188 19.1903ZM63.8812 19.1903C65.9175 19.2653 67.5 20.8141 67.5 22.8803V23.1878L71.3663 46.3328L78.9713 67.1903L79.1175 67.4716C79.8336 68.7326 80.8707 69.7815 82.1234 70.5119C83.3762 71.2424 84.7999 71.6282 86.25 71.6303H90V90.3803H75.2775C72.5343 90.3832 69.8773 89.4224 67.7703 87.6658C65.6634 85.9091 64.2405 83.4681 63.75 80.7691V22.8803C63.75 20.9603 63.81 19.7303 63.8812 19.1903ZM18.75 67.8803H22.5V101.63H18.75V67.8803ZM97.5 67.8803H101.25V101.63H97.5V67.8803Z" fill="black"/>
</svg>
